<svg xmlns="http://www.w3.org/2000/svg" width="295.742" height="210.843" viewBox="0 0 295.742 210.843" fill="#319795">
  <g id="グループ_19" data-name="グループ 19" transform="translate(869.501 5056.502)">
    <path id="パス_12" data-name="パス 12" d="M5262.532,7044.608c2.474.338,33.462.14,41.389-2.491s36.652-34.993,26.229-60.513a91.956,91.956,0,0,1,9.294-4.118s14.958,15.744,15.675,16.7,13.2,21.185,13.2,21.185,25.625,15.9,41.1,20.272,109.093,30.354,119.461-51.05c12.569-16.949,43.53-68.771-32.51-118.739s-138.826,8.563-148.6,27.606-10.871,20.425-10.871,20.425-19.872-6.984-35.637,3.717c-13.521,15.409-16.4,29.8-14.3,56.528s4.82,41.24,4.82,41.24l-14.118,24.007Z" transform="translate(-6126 -11896)" fill="#fff"/>
    <g id="svg0_2" data-name="svg0 2" transform="translate(-871.643 -5061.068)">
      <path id="パス_1" data-name="パス 1" d="M253.48,108.16c.52.6,1,1.2,1.53,1.81a6.568,6.568,0,0,1,.74.93l-.46-.59.48.64c1,1.38,2,2.81,2.9,4.27a67.067,67.067,0,0,1,4.47,8.47l.16.36c.26.6.22.49-.13-.33a4.771,4.771,0,0,1,.45,1.12c.24.62.48,1.24.71,1.87.59,1.64,1.12,3.29,1.6,5s.81,3.1,1.15,4.67c.13.66.26,1.31.38,2,.07.36.2,2.63.45,2.77l-.11-.8a7.112,7.112,0,0,0,.1.79c.03.26.09.8.13,1.19.08.8.15,1.6.2,2.4.11,1.59.16,3.18.16,4.78s-.06,3.18-.18,4.76c-.06.79-.13,1.58-.22,2.37,0,.37-.11.76-.13,1.13.1-1.85,0-.4,0,0a54.052,54.052,0,0,1-2.14,8.69c-.2.57-.4,1.14-.61,1.7l-.39,1c-.17.42-.77,1.38.06-.1-.75,1.35-1.3,2.83-2,4.2-.62,1.16-1.28,2.3-2,3.41-.82,1.29-1.92,2.49-2.66,3.82.78-1.39.36-.47.06-.09l-.68.83q-.69.83-1.41,1.62-1.45,1.6-3,3.09t-3.26,2.85c-.35.28-1.34.81.07,0-.3.19-.58.45-.87.66-.59.43-1.18.85-1.79,1.26a57.231,57.231,0,0,1-8.23,4.62c-.39.18-2.46,1.18-1,.47-.8.39-1.67.67-2.5,1-1.83.68-3.68,1.28-5.55,1.82a86.779,86.779,0,0,1-10.56,2.3c-.44.07-.9.17-1.34.2,1.65-.11.13,0-.19,0-.74.09-1.49.17-2.24.24q-2.9.28-5.81.41c-3.65.16-7.31.21-11,.16-4.11-.06-8.23-.26-12.32-.63-1.06-.09-2.12-.2-3.18-.32l-1.36-.16-.66-.07c-2-.21-3.92-.59-5.85-.94a122.36,122.36,0,0,1-11.94-2.8q-3-.9-6.05-2-1.5-.525-3-1.11l-1.27-.5-.84-.35c.74.32.8.34.18.08a6.56,6.56,0,0,0-4.64-.61,6.13,6.13,0,0,0-3.59,2.76c-1.37,2.59-.93,6.91,2.16,8.23,14.87,6.4,30.71,9.5,46.85,10.25,15.48.72,31.58-.11,46.18-5.73a68.84,68.84,0,0,0,18.94-10.84,59.8,59.8,0,0,0,12.71-14.44c7.26-11.46,10.12-25.23,9.1-38.67-1.07-14.16-5.82-28.29-14.42-39.67-1.22-1.62-2.48-3.22-3.82-4.75-2.07-2.38-6.41-2.28-8.5,0a6.16,6.16,0,0,0,0,8.51Z" stroke="#319795" stroke-width="1"/>
      <path id="パス_2" data-name="パス 2" d="M128.58,134.21a23.2,23.2,0,0,0-17,3,28.75,28.75,0,0,0-11.19,13.65c-4.39,10.83-.5,23.14,7.41,31.23a35.87,35.87,0,0,0,16.36,9.51c3,.8,6.67-1,7.4-4.2a6.13,6.13,0,0,0-4.21-7.4,30.59,30.59,0,0,1-3.08-1,4.459,4.459,0,0,0-.67-.27c1.25.29.88.39.45.18-.6-.29-1.19-.57-1.78-.89a30.449,30.449,0,0,1-2.62-1.59c-.23-.16-1.65-1.22-.85-.59s-.12-.11-.24-.21l-.68-.59a27.527,27.527,0,0,1-2.19-2.13c-.4-.44-.78-.9-1.17-1.36s-.11-.56.28.38a5.29,5.29,0,0,0-.62-.87,27.26,27.26,0,0,1-1.58-2.57c-.25-.47-.48-.95-.71-1.43s-.33-1,.18.47c-.11-.33-.25-.65-.37-1a22.923,22.923,0,0,1-.87-3c-.1-.46-.16-.93-.25-1.39.38,1.91,0,0,0-.52,0-1.08.07-2.12.09-3.19,0,1.79-.06.42.06-.15s.28-1.26.46-1.88.31-1,.5-1.49c.08-.22.18-.44.26-.66-.54,1.49-.36.82-.19.48a26.584,26.584,0,0,1,1.63-2.9c.27-.41,1.38-1.69.18-.33.31-.35.59-.72.9-1.06s.78-.84,1.2-1.24a10,10,0,0,0,1.29-1.13c0,.07-1.21.88-.41.32.28-.2.55-.4.84-.58.47-.31,1-.6,1.45-.86s2.18-.83.39-.25c.53-.17,1-.39,1.58-.55s1.09-.26,1.63-.39c1.17-.27-1.26.12-.44.05l.84-.08a16.831,16.831,0,0,1,1.88,0l.69.05c.47.05.23,0-.74-.1l.7.13c3.08.6,6.64-.87,7.4-4.2.68-3-.9-6.76-4.2-7.4Z" stroke="#319795" stroke-width="1"/>
      <path id="パス_3" data-name="パス 3" d="M217.66,129.24l2.07,15.54a4.52,4.52,0,0,0,.52,2.32,4.46,4.46,0,0,0,1.24,1.94,6,6,0,0,0,8.51,0,5.81,5.81,0,0,0,1.76-4.26l-2.07-15.54a4.52,4.52,0,0,0-.52-2.32,4.43,4.43,0,0,0-1.24-1.93,6,6,0,0,0-8.51,0,5.78,5.78,0,0,0-1.76,4.25Z" stroke="#319795" stroke-width="1"/>
      <path id="パス_4" data-name="パス 4" d="M188.05,130.06l1.74,15.58a6.61,6.61,0,0,0,1.76,4.26,6.18,6.18,0,0,0,4.26,1.76,6.08,6.08,0,0,0,4.25-1.76,5.81,5.81,0,0,0,1.76-4.26l-1.74-15.58a6.61,6.61,0,0,0-1.76-4.26,6,6,0,0,0-8.51,0,5.79,5.79,0,0,0-1.76,4.26Z" stroke="#319795" stroke-width="1"/>
      <path id="パス_5" data-name="パス 5" d="M220.64,70a4.77,4.77,0,0,0,.19,1.15c-.13-1-.15-1.1-.07-.44v.38c.08.78.14,1.55.17,2.32a38,38,0,0,1-.08,4.65,11.112,11.112,0,0,1-.1,1.16v.39q-.12,1,.06-.45a10.243,10.243,0,0,0-.35,2.1,40.851,40.851,0,0,1-1.16,4.51c-.21.68-.44,1.36-.69,2a10.06,10.06,0,0,0-.42,1.09c.35-.84.41-1,.15-.37l-.16.36A42.37,42.37,0,0,1,216,93c-.4.67-.81,1.32-1.25,2-.22.32-.44.64-.67,1l-.23.32c-.38.51-.3.41.24-.29.07.23-1.16,1.41-1.36,1.64-.56.63-1.13,1.24-1.73,1.83a6.017,6.017,0,1,0,8.51,8.51,47.11,47.11,0,0,0,12.71-41.1c-.54-3.11-4.53-5.14-7.4-4.21-3.36,1.09-4.78,4.07-4.21,7.4Z" stroke="#319795" stroke-width="1"/>
      <path id="パス_6" data-name="パス 6" d="M189.69,73.76a44.665,44.665,0,0,1-.35,4.91c-.14,1.29.2-1.27,0-.08-.07.45-.14.89-.22,1.34-.14.83-.31,1.66-.49,2.48-.37,1.66-.82,3.31-1.34,4.93-.24.76-.49,1.5-.76,2.25l-.42,1.11c-.07.16-.64,1.71-.29.74s-.17.37-.25.55c-.19.42-.38.84-.58,1.26-.34.71-.7,1.41-1.07,2.1q-1.2,2.25-2.61,4.36c-.43.64-.89,1.26-1.34,1.89-.7,1,.84-1-.12.15-.27.35-.56.69-.85,1a41.831,41.831,0,0,1-3.39,3.53,6.07,6.07,0,0,0,0,8.51,6.15,6.15,0,0,0,8.51,0c11.11-10.31,17.22-26,17.59-41.06a6,6,0,0,0-12,0Z" stroke="#319795" stroke-width="1"/>
      <path id="パス_7" data-name="パス 7" d="M157.37,79.15a62.839,62.839,0,0,1-2.77,9.2l-.42,1.08c-.42,1,.46-1.05,0,0-.34.76-.68,1.52-1.05,2.27-.69,1.45-1.45,2.87-2.25,4.26s-1.65,2.75-2.56,4.07c-.46.69-1,1.37-1.44,2-.23.3-.48.6-.7.92,0,0,.77-1,.35-.46l-.48.6a63.28,63.28,0,0,1-6.58,7c-.66.6-1.33,1.2-2,1.78-.34.29-.69.57-1,.85l-.45.36c-.61.51.94-.7.31-.23-1.5,1.12-3,2.18-4.59,3.18-2.66,1.68-4,5.43-2.16,8.23s5.39,4,8.23,2.16a71.59,71.59,0,0,0,27.72-33.13,64.23,64.23,0,0,0,3.49-11c.67-3.06-.92-6.65-4.2-7.4-3.05-.69-6.68.92-7.4,4.21Z" stroke="#319795" stroke-width="1"/>
      <path id="パス_8" data-name="パス 8" d="M240.11,36.73a94.09,94.09,0,0,1,13,7.35c.92.63,1.82,1.27,2.72,1.93l.59.44c.12.09,1.08.85.27.2l.26.21.86.68q2.67,2.18,5.15,4.56c1.63,1.57,3.2,3.2,4.69,4.9.74.84,1.47,1.7,2.17,2.57.29.36,1.31,1.83.26.31.37.53.78,1,1.16,1.55a78.807,78.807,0,0,1,7,11.55c.46.94.91,1.9,1.34,2.86.11.27.23.53.35.8.33.77-.59-1.45-.13-.3.21.54.44,1.09.65,1.63.8,2.09,1.52,4.22,2.15,6.37s1.23,4.58,1.68,6.9c.22,1.16.26,2.45.59,3.57,0-.11-.19-1.51-.07-.46l.09.77c.09.76.16,1.53.23,2.3a86.059,86.059,0,0,1-.11,14.8c-.07.65-.13,1.31-.21,2l-.09.78c-.13,1.06,0-.32.06-.43a35.421,35.421,0,0,0-.61,3.87c-.45,2.5-1,5-1.66,7.42-.71,2.66-1.54,5.29-2.5,7.87-.22.6-.44,1.19-.68,1.77-.13.35-.28.7-.42,1-.43,1.09.54-1.21,0-.06s-1.06,2.37-1.64,3.53a68.443,68.443,0,0,1-3.79,6.74c-.68,1.08-1.4,2.13-2.16,3.16-.13.19-.27.37-.4.55-.75,1,.89-1.11.11-.14-.42.53-.85,1.05-1.28,1.56-2,2.4-2.53,6.19,0,8.51,2.24,2.06,6.34,2.57,8.51,0a79.131,79.131,0,0,0,14.69-27.44,95.292,95.292,0,0,0,4.4-31.64,84.58,84.58,0,0,0-23.23-55,93.38,93.38,0,0,0-27.89-19.92c-2.85-1.34-6.63-.89-8.24,2.16-1.41,2.67-.88,6.8,2.16,8.23Z" stroke="#319795" stroke-width="1"/>
      <path id="パス_9" data-name="パス 9" d="M219.39,14.23a77.15,77.15,0,0,0-24.56-7.77,119.24,119.24,0,0,0-26.22-1.12,87.56,87.56,0,0,0-21.32,3.74,108.69,108.69,0,0,0-23.7,11.34C107.86,30.38,94.07,44,84.77,60.18A88.07,88.07,0,0,0,74,120c2.8,16.39,10.6,32.79,22.61,44.46,1.18,1.14,2.4,2.22,3.68,3.25a6.51,6.51,0,0,0,4.25,1.76,6.12,6.12,0,0,0,4.25-1.76c2-2.19,2.62-6.41,0-8.51a56.62,56.62,0,0,1-7-6.81c-.56-.64-1.1-1.29-1.63-2-.14-.17-.27-.34-.41-.5-.6-.75.31.39.34.44-.28-.4-.59-.78-.89-1.18q-1.65-2.25-3.12-4.62a83.515,83.515,0,0,1-5.46-10.44c-.42-.93.13.31.17.41-.09-.23-.19-.45-.28-.68-.19-.47-.37-.93-.55-1.39-.39-1-.75-2-1.1-3q-1-3-1.82-6.09T85.64,117c-.09-.52-.18-1-.26-1.58a4.556,4.556,0,0,0-.12-.8c-.12-.82.16,1.23.06.4-.14-1.15-.28-2.29-.37-3.44a80.31,80.31,0,0,1,0-13.87c.05-.57.11-1.15.17-1.72s.21-2.24.05-.57c.12-1.24.38-2.49.6-3.72q.69-3.67,1.7-7.28t2.45-7.37c.23-.6.48-1.19.72-1.79.32-.83-.41.91,0,.09.12-.28.24-.57.37-.85q.67-1.53,1.41-3a94.14,94.14,0,0,1,6.54-11.25c.59-.87,1.19-1.74,1.81-2.59l.94-1.28.48-.63c.66-.88-.56.7-.09.12q2-2.58,4.18-5a115.339,115.339,0,0,1,9.22-9.28c1.62-1.44,3.27-2.84,5-4.2.4-.33.82-.65,1.23-1l-.44.34.62-.47c.93-.71,1.88-1.4,2.83-2.08a115.621,115.621,0,0,1,10.73-6.74q2.7-1.5,5.49-2.83c.83-.4,1.67-.79,2.51-1.16l1.35-.59c.93-.4-.33.14-.43.18l1-.41a70.621,70.621,0,0,1,9.51-3.15c1.5-.36,3-.68,4.53-1,.81-.15,1.62-.29,2.44-.41l1.26-.18c-2.09.34-.19,0,.33,0a114.65,114.65,0,0,1,23.5-.33c.94.08,1.87.17,2.79.28l1.49.18c.8.1-1.29-.18-.49-.06l.93.13c2.09.32,4.17.7,6.23,1.16a71.728,71.728,0,0,1,11.48,3.5l.5.2c.72.29-1.17-.51-.46-.2l1.29.58c.89.42,1.77.86,2.65,1.32,2.78,1.47,6.67.8,8.23-2.16,1.47-2.78.81-6.66-2.16-8.23Z" stroke="#319795" stroke-width="1"/>
      <path id="パス_10" data-name="パス 10" d="M71.5,72.15c-11.5-2.91-23.37,1.43-31.77,9.4C30.84,90,27,102.11,25.83,114c-1.21,12.73,1.22,25.45,3,38,.11.73.22,1.45.31,2.18-.19-1.56,0,.08,0,.34l.12,1c.21,1.66.4,3.32.56,5,.27,2.91.45,5.83.47,8.76,0,1.49,0,3-.09,4.49a25.39,25.39,0,0,1-.4,4.45c.38-1.59,0-.17,0,.17a4.522,4.522,0,0,1-.14.87c-.13.73-.28,1.46-.44,2.18-.33,1.45-.72,2.87-1.18,4.28a13.73,13.73,0,0,1-.93,2.51c.07-.11.52-1.15.12-.28l-.47,1a32.482,32.482,0,0,1-2.08,3.68c-.37.57-.77,1.12-1.16,1.67-.75,1,.69-.84.15-.2l-.83,1A32.05,32.05,0,0,1,20,197.94l-.55.49-.53.44c.81-.66-.14.09-.27.18l-.89.62a28.591,28.591,0,0,1-3.47,1.92c-1.13.54,1.07-.4.28-.11-.39.15-.77.3-1.17.44-.57.19-1.14.36-1.72.51a16.447,16.447,0,0,0-2.11.44c1-.42,1.13-.13.53-.08s-1,.09-1.45.11c-3.14.15-6.17,2.66-6,6,.14,3.14,2.65,6.18,6,6,11.56-.55,21.55-7.86,27.29-17.67,6.24-10.65,7.08-23.61,6-35.64-.58-6.8-1.67-13.54-2.65-20.28-.22-1.45-.44-2.9-.62-4.35.17,1.38,0,.25,0-.1l-.15-1.21c-.11-.88-.21-1.77-.31-2.66-.34-3.1-.59-6.22-.68-9.34a76.294,76.294,0,0,1,.18-8.42c.05-.7.11-1.4.19-2.09,0-.28.07-.56.09-.84.16-1.47-.22,1.39,0-.07s.46-2.76.76-4.12.62-2.57,1-3.83c.18-.6.37-1.19.58-1.78a8.81,8.81,0,0,1,.87-2.33c-.07.09-.57,1.29-.12.29.15-.31.29-.63.43-.94.27-.56.55-1.12.84-1.67A37,37,0,0,1,44.78,94l.43-.62.45-.6-.48.63c.25,0,1.29-1.52,1.47-1.71a33.89,33.89,0,0,1,3-2.88l.58-.48c.91-.77-1.09.79.13-.09.56-.41,1.13-.8,1.72-1.17a31.72,31.72,0,0,1,3.61-2c.14-.06,1.29-.54.31-.15s.49-.18.66-.25c.58-.21,1.17-.4,1.76-.58s1.43-.38,2.15-.53l.72-.14a6.521,6.521,0,0,0,.73-.12l-.88.11a16.4,16.4,0,0,0,2.2-.16h1.83a5.706,5.706,0,0,1,1.09.07c.36.07,1.52.41-.13,0,.71.19,1.46.28,2.18.46,3,.77,6.67-1,7.4-4.2a6.12,6.12,0,0,0-4.2-7.4Z" stroke="#319795" stroke-width="1"/>
      <path id="パス_11" data-name="パス 11" d="M70.84,149.94c.09.5.29,2.45.08.37.06.55.14,1.1.19,1.66.11,1.11.19,2.23.22,3.35a56.251,56.251,0,0,1-.14,6.49,16.47,16.47,0,0,1-.16,1.71c-.06.57-.43,2.5,0,.46-.22,1.14-.35,2.3-.57,3.43a65,65,0,0,1-1.66,6.6c-.32,1.06-.67,2.1-1.05,3.14-.18.49-.36,1-.56,1.47-.1.27-.21.53-.32.8-.47,1.19.59-1.32.07-.15-.91,2-1.89,4-3,6a54.432,54.432,0,0,1-3.6,5.52c-.1.15-.79,1-.13.19s0,0-.15.18a14.937,14.937,0,0,1-1,1.15c-.75.87-1.53,1.72-2.33,2.53s-1.71,1.65-2.61,2.42c-.41.35-.85.66-1.24,1,1.46-1.33,0,0-.44.29a35.54,35.54,0,0,1-6.15,3.49c-2.89,1.28-3.79,5.71-2.16,8.23,1.93,3,5.14,3.53,8.23,2.16,8.91-3.95,16-11.42,21.05-19.64A70.22,70.22,0,0,0,83,163.69a61.27,61.27,0,0,0-.6-16.94c-.52-3.12-4.52-5.14-7.4-4.21-3.36,1.09-4.76,4.07-4.2,7.4Z" stroke="#319795" stroke-width="1"/>
    </g>
  </g>
</svg>
